<?xml version="1.0" encoding="UTF-8"?>
<svg width="361px" height="78px" viewBox="0 0 361 78" version="1.1" xmlns="http://www.w3.org/2000/svg" xmlns:xlink="http://www.w3.org/1999/xlink">
    <!-- Generator: Sketch 43.1 (39012) - http://www.bohemiancoding.com/sketch -->
    <title>Group 2</title>
    <desc>Created with Sketch.</desc>
    <defs></defs>
    <g id="Finalized" stroke="none" stroke-width="1" fill="none" fill-rule="evenodd">
        <g id="Logo" transform="translate(-305.000000, -235.000000)">
            <g id="Group-2" transform="translate(305.000000, 235.000000)">
                <g id="Group-4-Copy-3" transform="translate(0.000000, 5.000000)" fill="#4F4F4F">
                    <path d="M0,0 L14.7066846,6.65095499 L14.7066846,60.0306247 L38.0704956,60.0306247 L38.0704956,72.1910165 L0,72.1910165 L0,0 Z M95.5606992,41.3890573 C95.5606992,36.1043593 94.0309412,31.9496755 90.9713792,28.9248813 C87.9118172,25.9000871 84.3307927,24.3877127 80.2281982,24.3877127 C76.1256038,24.3877127 72.5619629,25.8827035 69.5371687,28.8727299 C66.5123744,31.8627564 65,36.0000566 65,41.2847545 C65,46.5694525 66.529758,50.7415199 69.58932,53.8010819 C72.648882,56.8606438 76.2125229,58.3904019 80.2803496,58.3904019 C84.3481763,58.3904019 87.9118172,56.8780274 90.9713792,53.8532332 C94.0309412,50.828439 95.5606992,46.6737552 95.5606992,41.3890573 Z M50,42.0096873 C50,33.3177499 52.5727749,26.2078517 57.7184018,20.6797795 C62.8640288,15.1517073 69.4002677,12.3877127 77.3273146,12.3877127 C85.2543616,12.3877127 91.3038593,15.6558321 95.4759892,22.1921691 L95.4759892,13.2221345 L110.078371,20.2925291 L110.078371,71.5876022 L95.4759892,64.8517961 L95.4759892,61.3056919 C91.0952528,68.3287774 85.0109878,71.8402674 77.2230119,71.8402674 C69.435036,71.8402674 62.9509479,69.0415055 57.7705532,63.4438978 C52.5901585,57.8462901 50,50.7016247 50,42.0096873 Z M238.560699,41.3890573 C238.560699,36.1043593 237.030941,31.9496755 233.971379,28.9248813 C230.911817,25.9000871 227.330793,24.3877127 223.228198,24.3877127 C219.125604,24.3877127 215.561963,25.8827035 212.537169,28.8727299 C209.512374,31.8627564 208,36.0000566 208,41.2847545 C208,46.5694525 209.529758,50.7415199 212.58932,53.8010819 C215.648882,56.8606438 219.212523,58.3904019 223.28035,58.3904019 C227.348176,58.3904019 230.911817,56.8780274 233.971379,53.8532332 C237.030941,50.828439 238.560699,46.6737552 238.560699,41.3890573 Z M193,42.0096873 C193,33.3177499 195.572775,26.2078517 200.718402,20.6797795 C205.864029,15.1517073 212.400268,12.3877127 220.327315,12.3877127 C228.254362,12.3877127 234.303859,15.6558321 238.475989,22.1921691 L238.475989,13.2221345 L253.078371,20.2925291 L253.078371,71.5876022 L238.475989,64.8517961 L238.475989,61.3056919 C234.095253,68.3287774 228.010988,71.8402674 220.223012,71.8402674 C212.435036,71.8402674 205.950948,69.0415055 200.770553,63.4438978 C195.590159,57.8462901 193,50.7016247 193,42.0096873 Z M122.88859,14.4073054 L138.533999,14.4073054 L153.449289,59.5703865 L168.260277,14.4073054 L183.905686,14.4073054 L162.627929,72.1910165 L144.166347,72.1910165 L122.88859,14.4073054 Z" id="Lava-X-Copy-29"></path>
                </g>
                <g id="Group" transform="translate(277.000000, 0.000000)" fill="#EB3670">
                    <rect id="Rectangle-5" transform="translate(25.604986, 10.604986) rotate(-314.000000) translate(-25.604986, -10.604986) " x="18.1049863" y="3.10498628" width="15" height="15"></rect>
                    <rect id="Rectangle-5-Copy" transform="translate(59.604986, 10.604986) rotate(-314.000000) translate(-59.604986, -10.604986) " x="52.1049863" y="3.10498628" width="15" height="15"></rect>
                    <polygon id="Path-2" points="0.583338304 76.7839571 19.1322251 77.1049464 38.8576252 49.627452 45.97177 63.4508115 52.8226766 56.9370108 67.0382072 76.9605684 83.9552862 76.7530669 43.3675928 18.029475"></polygon>
                </g>
            </g>
        </g>
    </g>
</svg>